<svg viewBox="0 0 943 215" version="1.1" xmlns="http://www.w3.org/2000/svg" xmlns:xlink="http://www.w3.org/1999/xlink">
  <g id="dma-logo-footer">
    <path d="M804.896486,203.959062 L804.896486,208.601602 C804.896486,209.215686 804.818362,209.824399 804.662586,210.426938 C804.505574,211.033173 804.269976,211.598379 803.954947,212.123078 C803.636675,212.650992 803.237856,213.117071 802.760959,213.518427 C802.270309,213.929284 801.696436,214.223527 801.04755,214.399119 L800.416073,214.57 L800.416073,211.87581 L800.758864,211.76214 C800.983155,211.687764 801.182056,211.547186 801.361245,211.330637 C801.568846,211.080804 801.742189,210.800515 801.883216,210.486085 C802.023352,210.176478 802.122788,209.851917 802.18238,209.511319 L802.212843,209.316434 L802.235151,209.10114 L800.574042,209.101408 L800.574042,203.959062 L804.896486,203.959062 Z M597.856832,179.610718 C599.249387,179.610718 600.610456,179.813414 601.937664,180.218326 C603.269861,180.625799 604.48073,181.230912 605.569183,182.033602 C606.660498,182.840221 607.573423,183.83166 608.305752,185.004766 C609.043296,186.187277 609.508231,187.545875 609.70219,189.075554 L609.773524,189.638138 L606.115739,189.638138 L606.02854,189.246909 C605.802896,188.234521 605.43588,187.330854 604.928446,186.534678 C604.419657,185.738792 603.802564,185.073913 603.075686,184.537789 C602.342269,183.997783 601.534187,183.586332 600.649555,183.302429 C599.763673,183.019071 598.833381,182.877259 597.856832,182.877259 C596.060783,182.877259 594.532585,183.211294 593.264922,183.874897 C591.986015,184.543392 590.943747,185.425532 590.133184,186.523612 C589.312709,187.633823 588.706523,188.887929 588.313818,190.28978 C587.917455,191.703723 587.719465,193.156001 587.719465,194.649008 C587.719465,196.116292 587.917518,197.562984 588.314149,198.990464 C588.707048,200.405472 589.313328,201.665985 590.133472,202.774793 C590.943083,203.872527 591.984871,204.754026 593.265193,205.42326 C594.533457,206.087178 596.061962,206.421754 597.856832,206.421754 C599.105459,206.421754 600.223171,206.200406 601.212735,205.760455 C602.205744,205.319494 603.060159,204.71955 603.780002,203.958915 C604.504331,203.194485 605.092523,202.298134 605.544725,201.268264 C605.997556,200.235736 606.28757,199.119354 606.414263,197.918228 L606.461459,197.470773 L610.158696,197.470773 L610.099216,198.023935 C609.90851,199.797488 609.486443,201.399833 608.830922,202.830155 C608.172286,204.267274 607.319242,205.49124 606.271378,206.499399 C605.219154,207.510744 603.982042,208.289689 602.564336,208.83393 C601.146099,209.377575 599.576668,209.648384 597.856832,209.648384 C595.57091,209.648384 593.553184,209.23629 591.809007,208.408609 C590.070517,207.583084 588.622417,206.477205 587.467066,205.091101 C586.317489,203.711933 585.456447,202.11803 584.883125,200.310683 C584.313982,198.517535 584.029897,196.629884 584.029897,194.649008 C584.029897,192.669144 584.313979,190.781517 584.883125,188.987332 C585.456453,187.180998 586.317189,185.58094 587.465542,184.189794 C588.620807,182.790274 590.06931,181.67759 591.808902,180.851541 C593.552583,180.023055 595.570235,179.610718 597.856832,179.610718 Z M912.11422,179.610718 C913.506775,179.610718 914.867844,179.813414 916.195052,180.218326 C917.527249,180.625799 918.738118,181.230912 919.826571,182.033602 C920.917886,182.840221 921.830811,183.83166 922.56314,185.004766 C923.300684,186.187277 923.765619,187.545875 923.959578,189.075554 L924.030912,189.638138 L920.373127,189.638138 L920.285928,189.246909 C920.060284,188.234521 919.693267,187.330854 919.185833,186.534678 C918.677045,185.738792 918.059952,185.073913 917.333074,184.537789 C916.599657,183.997783 915.791575,183.586332 914.906943,183.302429 C914.02106,183.019071 913.090769,182.877259 912.11422,182.877259 C910.318171,182.877259 908.789973,183.211294 907.52231,183.874897 C906.243403,184.543392 905.201135,185.425532 904.390572,186.523612 C903.570097,187.633823 902.96391,188.887929 902.571206,190.28978 C902.174843,191.703723 901.976853,193.156001 901.976853,194.649008 C901.976853,196.116292 902.174906,197.562984 902.571537,198.990464 C902.964436,200.405472 903.570716,201.665985 904.39086,202.774793 C905.200471,203.872527 906.242259,204.754026 907.522581,205.42326 C908.790845,206.087178 910.31935,206.421754 912.11422,206.421754 C913.362847,206.421754 914.480559,206.200406 915.470123,205.760455 C916.463132,205.319494 917.317547,204.71955 918.03739,203.958915 C918.761719,203.194485 919.349911,202.298134 919.802113,201.268264 C920.254944,200.235736 920.544958,199.119354 920.67165,197.918228 L920.718847,197.470773 L924.416084,197.470773 L924.356604,198.023935 C924.165898,199.797488 923.743831,201.399833 923.08831,202.830155 C922.429674,204.267274 921.576629,205.49124 920.528766,206.499399 C919.476542,207.510744 918.23943,208.289689 916.821724,208.83393 C915.403487,209.377575 913.834056,209.648384 912.11422,209.648384 C909.828298,209.648384 907.810572,209.23629 906.066395,208.408609 C904.327905,207.583084 902.879804,206.477205 901.724454,205.091101 C900.574877,203.711933 899.713834,202.11803 899.140513,200.310683 C898.57137,198.517535 898.287285,196.629884 898.287285,194.649008 C898.287285,192.669144 898.571366,190.781517 899.140513,188.987332 C899.713841,187.180998 900.574577,185.58094 901.72293,184.189794 C902.878195,182.790274 904.326698,181.67759 906.06629,180.851541 C907.809971,180.023055 909.827622,179.610718 912.11422,179.610718 Z M507.260694,179.610418 C508.704022,179.610418 510.082532,179.799494 511.392403,180.177705 C512.71575,180.558161 513.879764,181.133215 514.881665,181.902339 C515.887838,182.676043 516.692147,183.637606 517.293298,184.783499 C517.899149,185.939418 518.200194,187.275852 518.200194,188.786818 L518.200194,189.286624 L514.534798,189.286624 L514.511239,188.811536 C514.461852,187.815562 514.237215,186.957894 513.840135,186.231852 C513.438474,185.498353 512.917334,184.887427 512.275531,184.396502 C511.623775,183.898677 510.873721,183.521505 510.022883,183.26584 C509.160493,183.006705 508.25327,182.876959 507.299686,182.876959 C506.413853,182.876959 505.561481,182.970651 504.742747,183.157737 C503.942426,183.340401 503.247165,183.629522 502.654347,184.024235 C502.074601,184.410245 501.608006,184.91814 501.251313,185.553472 C500.900654,186.17648 500.721621,186.965823 500.721621,187.926742 C500.721621,188.507642 500.819985,189.003257 501.01222,189.416921 C501.205832,189.834408 501.471852,190.186881 501.812236,190.478413 C502.168932,190.783145 502.576788,191.028614 503.040781,191.215635 C503.404059,191.363754 503.78763,191.491414 504.182449,191.596537 L511.498994,193.383772 C512.520425,193.649292 513.487335,193.97708 514.397667,194.365988 C515.32614,194.763694 516.145109,195.257174 516.854887,195.84868 C517.582537,196.455982 518.154139,197.197362 518.568247,198.07029 C518.983978,198.950019 519.189001,199.999023 519.189001,201.215023 C519.189001,201.549803 519.154819,201.984932 519.086958,202.528771 C519.013413,203.101689 518.842714,203.700078 518.575885,204.322825 C518.307656,204.949906 517.930164,205.578484 517.444537,206.20925 C516.941712,206.862027 516.261994,207.443302 515.407571,207.955548 C514.556606,208.465088 513.516287,208.873642 512.286416,209.183844 C511.057144,209.494157 509.593129,209.648085 507.89357,209.648085 C506.190047,209.648085 504.605279,209.454301 503.137804,209.065554 C501.650145,208.670417 500.376336,208.061146 499.321282,207.236492 C498.25272,206.404008 497.430611,205.334996 496.856543,204.034589 C496.282849,202.733683 496.040462,201.18551 496.123771,199.393863 L496.145933,198.917238 L499.822298,198.917238 L499.812711,199.426438 C499.787158,200.78366 499.996896,201.904884 500.433253,202.79236 C500.871225,203.681242 501.468167,204.384432 502.226675,204.907923 C502.999835,205.442456 503.921782,205.827574 504.995132,206.061832 C506.091759,206.301382 507.26874,206.421455 508.526446,206.421455 C509.224712,206.421455 509.98985,206.322209 510.821643,206.121841 C511.641162,205.926309 512.404447,205.61387 513.11065,205.185005 C513.801563,204.765983 514.375643,204.227863 514.837709,203.567009 C515.277708,202.937715 515.499433,202.171531 515.499433,201.253936 C515.499433,200.562364 515.345425,199.976079 515.040774,199.485018 C514.721729,198.971651 514.308016,198.539546 513.79815,198.187141 C513.266667,197.82109 512.680119,197.522101 512.033631,197.28792 C511.366656,197.047289 510.712793,196.850971 510.069078,196.69792 L503.775507,195.172885 C502.940772,194.960043 502.1228,194.692376 501.320087,194.370091 C500.487594,194.03585 499.758671,193.588566 499.135475,193.027759 C498.505002,192.461488 497.997314,191.768627 497.613583,190.953246 C497.223834,190.126169 497.032054,189.129438 497.032054,187.965655 C497.032054,187.235162 497.171537,186.393627 497.447515,185.443706 C497.732337,184.455881 498.264546,183.529837 499.038128,182.669573 C499.811051,181.806598 500.864783,181.082659 502.193953,180.493352 C503.530815,179.902157 505.219221,179.610418 507.260694,179.610418 Z M552.578309,179.610618 C554.86557,179.610618 556.877654,180.023197 558.607506,180.852043 C560.334448,181.6785 561.77628,182.791261 562.929606,184.189694 C564.07796,185.58084 564.938696,187.180898 565.512049,188.987311 C566.08117,190.781417 566.365251,192.669044 566.365251,194.648908 C566.365251,196.629784 566.081166,198.517435 565.512049,200.310505 C564.938702,202.11793 564.077659,203.711833 562.928226,205.090829 C561.774676,206.476023 560.333247,207.581975 558.607497,208.407861 C556.877058,209.235949 554.864896,209.648285 552.578309,209.648285 C550.292236,209.648285 548.274506,209.236137 546.531588,208.408559 C544.792004,207.583006 543.343811,206.477057 542.189543,205.091001 C541.039966,203.711833 540.178923,202.11793 539.605602,200.310583 C539.035998,198.515983 538.751374,196.628165 538.751374,194.648908 C538.751374,192.670662 539.035994,190.782871 539.605602,188.987232 C540.17893,187.180898 541.039666,185.58084 542.187878,184.189865 C543.342202,182.790221 544.790797,181.677467 546.531274,180.851491 C548.273905,180.023009 550.29156,179.610618 552.578309,179.610618 Z M464.552867,179.610418 C465.997066,179.610418 467.375588,179.79946 468.685677,180.177734 C470.008852,180.558441 471.173614,181.133734 472.17504,181.902494 C473.181114,182.676938 473.985958,183.638823 474.586471,184.783499 C475.192322,185.939418 475.493367,187.275852 475.493367,188.786818 L475.493367,189.286624 L471.828415,189.286624 L471.804436,188.812001 C471.754013,187.813995 471.529677,186.956594 471.133308,186.231852 C470.731469,185.498028 470.210282,184.887317 469.567704,184.396502 C468.916152,183.898833 468.166116,183.521552 467.316056,183.26584 C466.453666,183.006705 465.546443,182.876959 464.592859,182.876959 C463.707123,182.876959 462.854702,182.97063 462.03492,183.157737 C461.235188,183.340267 460.540791,183.629221 459.947223,184.024433 C459.367875,184.409581 458.901732,184.916983 458.54375,185.553001 C458.193678,186.176542 458.014794,186.966227 458.014794,187.926742 C458.014794,188.509012 458.112666,189.00435 458.304393,189.416921 C458.498132,189.834683 458.764155,190.186874 459.105884,190.478819 C459.460221,190.782302 459.868699,191.028145 460.332639,191.215507 C460.697734,191.364077 461.08114,191.491667 461.475178,191.596535 L468.792167,193.383772 C469.811974,193.648869 470.777949,193.976428 471.69084,194.365988 C472.619824,194.763913 473.438778,195.257543 474.146779,195.848446 C474.875227,196.455509 475.44707,197.196851 475.861636,198.070747 C476.276797,198.951578 476.482174,200.001017 476.482174,201.215023 C476.482174,201.551623 476.447611,201.988268 476.37925,202.527837 C476.307155,203.097975 476.136548,203.696036 475.869058,204.322825 C475.600829,204.949906 475.223337,205.578484 474.73771,206.20925 C474.235319,206.861462 473.554961,207.442827 472.69998,207.955407 C471.850158,208.464895 470.809877,208.873537 469.579492,209.183869 C468.349178,209.494183 466.885152,209.648085 465.185743,209.648085 C463.483092,209.648085 461.898341,209.454272 460.430977,209.065554 C458.943655,208.670507 457.669828,208.061352 456.613265,207.236343 C455.544535,206.402898 454.721976,205.333301 454.149854,204.034901 C453.575823,202.735637 453.333552,201.188209 453.41593,199.394152 L453.437829,198.917238 L457.114116,198.917238 L457.104891,199.42609 C457.080239,200.785802 457.289838,201.906284 457.726426,202.79236 C458.164908,203.682278 458.761188,204.384957 459.519848,204.907923 C460.293418,205.442739 461.214505,205.827694 462.287215,206.061813 C463.384887,206.301379 464.561896,206.421455 465.818619,206.421455 C466.517151,206.421455 467.283323,206.322136 468.114816,206.121841 C468.933701,205.92646 469.696071,205.614203 470.402823,205.185005 C471.094501,204.765519 471.669332,204.227126 472.130882,203.567009 C472.570394,202.938412 472.791606,202.172473 472.791606,201.253936 C472.791606,200.561311 472.638094,199.975267 472.333947,199.485018 C472.014731,198.971375 471.600993,198.539478 471.089984,198.186907 C470.561034,197.821958 469.973855,197.522647 469.327023,197.287999 C468.658928,197.047315 468.004929,196.850956 467.362251,196.69792 L461.06868,195.172885 C460.232231,194.959606 459.413205,194.691678 458.61326,194.370091 C457.779632,194.035394 457.049885,193.587769 456.428967,193.028045 C455.798347,192.462618 455.291177,191.770093 454.906756,190.953246 C454.517007,190.126169 454.325227,189.129438 454.325227,187.965655 C454.325227,187.236039 454.464374,186.394934 454.739828,185.443221 C455.025792,184.455195 455.558152,183.529356 456.3313,182.669573 C457.10482,181.805933 458.15807,181.082143 459.486992,180.493412 C460.822598,179.902305 462.511859,179.610418 464.552867,179.610418 Z M778.454725,179.610418 C779.898053,179.610418 781.276563,179.799494 782.586434,180.177705 C783.90978,180.558161 785.073795,181.133215 786.075696,181.902339 C787.081869,182.676043 787.886177,183.637606 788.487328,184.783499 C789.09318,185.939418 789.394225,187.275852 789.394225,188.786818 L789.394225,189.286624 L785.728829,189.286624 L785.70527,188.811536 C785.655882,187.815562 785.431246,186.957894 785.034166,186.231852 C784.632505,185.498353 784.111365,184.887427 783.469562,184.396502 C782.817806,183.898677 782.067752,183.521505 781.216914,183.26584 C780.354524,183.006705 779.447301,182.876959 778.493717,182.876959 C777.607883,182.876959 776.755512,182.970651 775.936777,183.157737 C775.136457,183.340401 774.441196,183.629522 773.848378,184.024235 C773.268631,184.410245 772.802036,184.91814 772.445344,185.553472 C772.094685,186.17648 771.915652,186.965823 771.915652,187.926742 C771.915652,188.507642 772.014015,189.003257 772.206251,189.416921 C772.399862,189.834408 772.665883,190.186881 773.006267,190.478413 C773.362963,190.783145 773.770819,191.028614 774.234812,191.215635 C774.59809,191.363754 774.981661,191.491414 775.37648,191.596537 L782.693025,193.383772 C783.714455,193.649292 784.681365,193.97708 785.591698,194.365988 C786.520171,194.763694 787.33914,195.257174 788.048918,195.84868 C788.776568,196.455982 789.34817,197.197362 789.762278,198.07029 C790.178009,198.950019 790.383031,199.999023 790.383031,201.215023 C790.383031,201.549803 790.348849,201.984932 790.280989,202.528771 C790.207444,203.101689 790.036744,203.700078 789.769916,204.322825 C789.501687,204.949906 789.124195,205.578484 788.638568,206.20925 C788.135742,206.862027 787.456025,207.443302 786.601602,207.955548 C785.750637,208.465088 784.710318,208.873642 783.480447,209.183844 C782.251175,209.494157 780.787159,209.648085 779.0876,209.648085 C777.384077,209.648085 775.799309,209.454301 774.331835,209.065554 C772.844176,208.670417 771.570367,208.061146 770.515313,207.236492 C769.446751,206.404008 768.624642,205.334996 768.050574,204.034589 C767.47688,202.733683 767.234493,201.18551 767.317801,199.393863 L767.339964,198.917238 L771.016329,198.917238 L771.006742,199.426438 C770.981189,200.78366 771.190926,201.904884 771.627284,202.79236 C772.065255,203.681242 772.662197,204.384432 773.420706,204.907923 C774.193865,205.442456 775.115813,205.827574 776.189163,206.061832 C777.28579,206.301382 778.462771,206.421455 779.720476,206.421455 C780.418742,206.421455 781.183881,206.322209 782.015674,206.121841 C782.835193,205.926309 783.598478,205.61387 784.304681,205.185005 C784.995594,204.765983 785.569674,204.227863 786.03174,203.567009 C786.471739,202.937715 786.693464,202.171531 786.693464,201.253936 C786.693464,200.562364 786.539455,199.976079 786.234805,199.485018 C785.91576,198.971651 785.502047,198.539546 784.992181,198.187141 C784.460698,197.82109 783.87415,197.522101 783.227662,197.28792 C782.560687,197.047289 781.906823,196.850971 781.263109,196.69792 L774.969538,195.172885 C774.134803,194.960043 773.316831,194.692376 772.514117,194.370091 C771.681625,194.03585 770.952702,193.588566 770.329506,193.027759 C769.699033,192.461488 769.191344,191.768627 768.807614,190.953246 C768.417864,190.126169 768.226084,189.129438 768.226084,187.965655 C768.226084,187.235162 768.365568,186.393627 768.641545,185.443706 C768.926368,184.455881 769.458577,183.529837 770.232158,182.669573 C771.005082,181.806598 772.058814,181.082659 773.387984,180.493352 C774.724846,179.902157 776.413251,179.610418 778.454725,179.610418 Z M53.0401076,180.196607 L64.5085428,209.101807 L60.5452339,209.101807 L57.104437,200.424518 L44.9341302,200.424518 L41.5339039,209.101807 L37.6012959,209.101807 L49.3576329,180.196607 L53.0401076,180.196607 Z M424.242531,180.196607 L435.710966,209.101807 L431.747657,209.101807 L428.306303,200.424518 L416.136997,200.424518 L412.736327,209.101807 L408.803719,209.101807 L420.560056,180.196607 L424.242531,180.196607 Z M665.737773,180.196607 L677.207244,209.101807 L673.242911,209.101807 L669.802351,200.424518 L657.633045,200.424518 L654.23258,209.101807 L650.299997,209.101807 L662.055299,180.196607 L665.737773,180.196607 Z M356.700973,180.196607 L368.169408,209.101807 L364.206099,209.101807 L360.765455,200.424518 L348.595148,200.424518 L345.194769,209.101807 L341.262161,209.101807 L353.018498,180.196607 L356.700973,180.196607 Z M126.197665,180.196607 L137.6661,209.101807 L133.702791,209.101807 L130.261426,200.424518 L118.09212,200.424518 L114.691461,209.101807 L110.758853,209.101807 L122.51519,180.196607 L126.197665,180.196607 Z M10.2807366,180.197206 C14.7000198,180.304094 18.062908,181.542877 20.3391928,183.928319 C22.6136172,186.312907 23.7396365,189.893802 23.7396365,194.648808 C23.7396365,199.404686 22.613679,202.985642 20.3391136,205.370378 C18.062908,207.755737 14.7000198,208.99452 10.2686322,209.101408 L0,209.101408 L0,180.197206 L10.2807366,180.197206 Z M283.413687,180.197206 C287.83297,180.304094 291.195859,181.542877 293.472143,183.928319 C295.746568,186.312907 296.872587,189.893802 296.872587,194.648808 C296.872587,199.404686 295.74663,202.985642 293.472064,205.370378 C291.195859,207.755737 287.83297,208.99452 283.401583,209.101408 L273.132951,209.101408 L273.132951,180.197206 L283.413687,180.197206 Z M321.90368,180.197206 L321.90368,209.101408 L318.213112,209.101408 L318.213112,180.197206 L321.90368,180.197206 Z M872.20059,180.196707 L872.199649,205.833412 L888.018489,205.834368 L888.018489,209.100909 L868.510023,209.100909 L868.510023,180.196707 L872.20059,180.196707 Z M97.3317084,180.196707 L97.3317084,183.463248 L87.4836532,183.463121 L87.4846389,209.100909 L83.7950715,209.100909 L83.7946196,183.463121 L73.9879942,183.463248 L73.9879942,180.196707 L97.3317084,180.196707 Z M632.919703,180.197206 L632.919703,209.101408 L629.229136,209.101408 L629.229136,180.197206 L632.919703,180.197206 Z M712.007497,180.196707 L712.007497,183.463248 L702.160731,183.463121 L702.161428,209.100909 L698.47086,209.100909 L698.470696,183.463121 L688.663783,183.463248 L688.663783,180.196707 L712.007497,180.196707 Z M749.970055,180.196707 L749.970055,183.463248 L733.162628,183.463121 L733.162628,192.546585 L748.902264,192.547085 L748.902264,195.813626 L733.162628,195.813313 L733.162628,205.833412 L750.168016,205.834368 L750.168016,209.100909 L729.472782,209.100909 L729.472782,180.196707 L749.970055,180.196707 Z M186.348429,180.196707 L195.38463,203.78421 L204.764413,180.196707 L209.559006,180.196707 L209.559006,209.100909 L205.868438,209.100909 L205.868093,186.885789 L196.979921,209.100909 L193.766677,209.100909 L185.238537,186.972755 L185.238774,209.100909 L181.548206,209.100909 L181.548206,180.196707 L186.348429,180.196707 Z M252.385609,180.196707 L252.385609,183.463248 L235.578578,183.463121 L235.578578,192.546585 L251.317818,192.547085 L251.317818,195.813626 L235.578578,195.813313 L235.578578,205.833412 L252.58357,205.834368 L252.58357,209.100909 L231.889337,209.100909 L231.889337,180.196707 L252.385609,180.196707 Z M841.079092,180.196707 L841.078621,205.833412 L856.896991,205.834368 L856.896991,209.100909 L837.388525,209.100909 L837.388525,180.196707 L841.079092,180.196707 Z M552.578309,182.877159 C550.783229,182.877159 549.254987,183.211203 547.986534,183.874726 C546.708506,184.543258 545.666125,185.425495 544.854661,186.523512 C544.033872,187.634149 543.427915,188.888274 543.036209,190.289986 C542.639153,191.702947 542.440942,193.155067 542.440942,194.648908 C542.440942,196.117023 542.639219,197.56358 543.03671,198.990667 C543.42844,200.404925 544.034494,201.665464 544.854783,202.774469 C545.665458,203.872363 546.707361,204.753958 547.986534,205.423089 C549.25586,206.087069 550.784408,206.421655 552.578309,206.421655 C554.37182,206.421655 555.893733,206.087221 557.149177,205.424094 C558.414735,204.755122 559.45055,203.873271 560.262921,202.774363 C561.082109,201.665553 561.688252,200.404829 562.081023,198.99028 C562.478138,197.561056 562.676684,196.114313 562.676684,194.648908 C562.676684,193.157786 562.478196,191.705415 562.081307,190.289595 C561.688779,188.888374 561.082732,187.634062 560.26313,186.523736 C559.449873,185.424574 558.413589,184.542088 557.149314,183.873794 C555.894595,183.211049 554.372993,182.877159 552.578309,182.877159 Z M276.822673,183.463121 L276.822673,205.834412 L282.056846,205.834867 C284.042524,205.834867 285.742168,205.625878 287.15544,205.210659 C288.542652,204.802819 289.676021,204.160181 290.562958,203.282511 C291.449376,202.406287 292.105542,201.268187 292.531399,199.859757 C292.964121,198.424465 293.18202,196.687975 293.18202,194.648808 C293.18202,192.610161 292.964016,190.872839 292.531488,189.439152 C292.105589,188.029638 291.449522,186.891473 290.562958,186.015105 C289.67587,185.138218 288.542267,184.495682 287.155529,184.087981 C285.742168,183.672736 284.042524,183.463747 282.056846,183.463747 L276.822673,183.463121 Z M3.69003462,183.463121 L3.69003462,205.834412 L8.92389584,205.834867 C10.9095735,205.834867 12.6092173,205.625878 14.0224899,205.210659 C15.4097017,204.802819 16.5430709,204.160181 17.4300077,203.282511 C18.3164257,202.406287 18.9725912,201.268187 19.3984483,199.859757 C19.83117,198.424465 20.0490693,196.687975 20.0490693,194.648808 C20.0490693,192.610161 19.8310656,190.872839 19.3985373,189.439152 C18.9726388,188.029638 18.3165712,186.891473 17.4300077,186.015105 C16.5429191,185.138218 15.4093161,184.495682 14.0225788,184.087981 C12.6092173,183.672736 10.9095735,183.463747 8.92389584,183.463747 L3.69003462,183.463121 Z M51.0698389,184.736076 L46.1584689,197.15779 L55.8090207,197.15779 L51.0698389,184.736076 Z M124.226828,184.736626 L119.316459,197.15779 L128.966009,197.15779 L124.226828,184.736626 Z M663.767753,184.736626 L658.856383,197.15779 L668.506934,197.15779 L663.767753,184.736626 Z M422.271705,184.736626 L417.361336,197.15779 L427.010887,197.15779 L422.271705,184.736626 Z M354.730857,184.736076 L349.819487,197.15779 L359.470039,197.15779 L354.730857,184.736076 Z M934.739784,177.497444 C935.636673,177.497444 936.482909,177.638264 937.288743,177.925067 L937.613733,178.050307 C938.501789,178.417436 939.27505,178.929028 939.929678,179.583398 C940.584949,180.237334 941.098935,181.003925 941.469286,181.878783 C941.843387,182.758491 942.03,183.702805 942.03,184.707242 C942.03,185.725695 941.843391,186.673479 941.469175,187.545941 C941.098143,188.417054 940.583598,189.178029 939.928213,189.824561 C939.2736,190.472469 938.500954,190.980432 937.61421,191.347019 C936.724307,191.715984 935.765223,191.900079 934.739784,191.900079 C933.713478,191.900079 932.754377,191.716032 931.864637,191.347135 C930.978592,190.980393 930.206124,190.472547 929.55065,189.824853 C928.895923,189.177907 928.381559,188.417199 928.009685,187.546624 C927.635894,186.672639 927.449568,185.724925 927.449568,184.707242 C927.449568,183.703571 927.635895,182.75934 928.009165,181.879057 C928.380766,181.003781 928.894573,180.237457 929.54889,179.583398 C930.204674,178.928949 930.977757,178.417475 931.864358,178.050504 C932.754377,177.681491 933.713478,177.497444 934.739784,177.497444 Z M934.592868,185.640274 L933.742939,185.640274 L933.743625,189.086372 L931.784884,189.088044 C932.051773,189.265394 932.33895,189.420048 932.64687,189.552184 C933.28373,189.825476 933.979461,189.962566 934.739784,189.962566 C935.486924,189.962566 936.176711,189.825571 936.814701,189.552184 C937.122621,189.420048 937.409798,189.265394 937.676725,189.088005 L936.802414,189.086372 L934.592868,185.640274 Z M931.772912,180.336315 C931.489084,180.525965 931.228122,180.741397 930.989487,180.982808 C930.525346,181.451433 930.163062,182.003505 929.901151,182.641412 C929.64016,183.278901 929.509455,183.965987 929.509455,184.707242 C929.509455,185.450404 929.64013,186.137331 929.901056,186.772841 C930.163013,187.411775 930.525154,187.963856 930.99017,188.433365 C931.22839,188.674822 931.489082,188.89029 931.772797,189.079987 L931.772912,180.336315 Z M934.739784,179.452917 C934.075014,179.452917 933.458746,179.558481 932.899998,179.763725 L932.64687,179.864296 C932.339136,179.996353 932.051996,180.150953 931.785004,180.32826 L935.287676,180.330109 C936.287491,180.330109 937.05169,180.546368 937.566897,181.008861 C938.086996,181.478164 938.342723,182.146085 938.342723,182.976114 C938.342723,183.376072 938.280279,183.73303 938.150128,184.050252 C938.019319,184.367821 937.837365,184.63972 937.60615,184.859091 C937.382029,185.075383 937.120997,185.247189 936.828125,185.373511 L936.674144,185.434354 L938.607258,188.286244 L938.66518,188.226103 C939.039907,187.802092 939.341735,187.316961 939.571015,186.769219 C939.83693,186.134866 939.970113,185.449144 939.970113,184.707242 C939.970113,183.967247 939.836899,183.281362 939.571015,182.645266 C939.30347,182.007025 938.937085,181.45322 938.47174,180.98246 C938.006097,180.5114 937.454975,180.139054 936.814939,179.864398 C936.175515,179.590397 935.485573,179.452917 934.739784,179.452917 Z M935.01273,182.141903 L933.742939,182.141636 L933.742939,183.828979 L934.513078,183.829343 L934.933026,183.823097 L935.356233,183.803329 C935.594439,183.788368 935.797065,183.747365 935.966338,183.681803 C936.093534,183.633115 936.190925,183.558394 936.266876,183.453195 C936.334316,183.35877 936.374818,183.204332 936.374818,182.976114 C936.374818,182.785777 936.343704,182.652617 936.29204,182.568825 C936.233422,182.472841 936.154912,182.39715 936.046761,182.334939 C935.925373,182.264045 935.786709,182.215462 935.624622,182.188868 C935.437174,182.157407 935.234556,182.141903 935.01273,182.141903 Z M564.699507,118.343323 L608.145126,118.664605 L665.741889,118.664605 C665.788825,125.934346 662.919387,129.479417 657.270495,135.358269 C653.966143,138.785604 648.441226,139.420185 648.441226,139.420185 L648.272259,139.420185 L648.271259,139.471071 L584.138833,139.369298 C584.138833,139.369298 576.1454,138.472305 572.826051,135.042974 L572.149074,134.334993 L571.503342,133.647666 L570.888606,132.978538 C566.593477,128.242471 564.667315,124.71939 564.699507,118.343323 Z M492.475804,118.660614 L492.475804,139.37329 L447.567609,139.37329 L447.567609,118.660614 L492.475804,118.660614 Z M375.685701,118.660614 L375.685701,139.37329 L296.557069,139.371022 L296.001941,139.318807 L295.462439,139.256706 C293.077586,138.961458 287.523178,138.009411 284.969487,135.358269 L283.963659,134.303334 L283.32763,133.625084 L282.719319,132.963983 C278.558356,128.390526 276.441016,124.895812 276.500147,118.664605 L317.273154,118.664605 L375.685701,118.660614 Z M436.890702,118.660614 L436.890702,139.37329 L392.0165,139.37329 L392.0165,118.660614 L436.890702,118.660614 Z M547.717973,118.660614 L547.717973,139.37329 L502.816777,139.37329 L502.816777,118.660614 L547.717973,118.660614 Z M375.685701,89.0029436 L375.685701,109.695664 L330.804501,109.695664 L330.804501,89.0029436 L375.685701,89.0029436 Z M492.475804,89.0029436 L492.475804,109.695664 L447.567609,109.695664 L447.567609,89.0029436 L492.475804,89.0029436 Z M321.700286,89.0029436 L321.700286,109.695664 L276.818085,109.695664 L276.818085,89.0029436 L321.700286,89.0029436 Z M436.890702,89.0029436 L436.890702,109.695664 L392.0165,109.695664 L392.0165,89.0029436 L436.890702,89.0029436 Z M547.717973,89.0029436 L547.717973,109.695664 L502.816777,109.695664 L502.816777,89.0029436 L547.717973,89.0029436 Z M609.559849,89.0029436 L609.559849,109.695664 L564.662651,109.695664 L564.662651,89.0029436 L609.559849,89.0029436 Z M665.738835,89.0029436 L665.738835,109.695664 L620.857634,109.695664 L620.857634,89.0029436 L665.738835,89.0029436 Z M547.717973,59.3372913 L547.717973,80.0489693 L502.816777,80.0489693 L502.816777,59.3372913 L547.717973,59.3372913 Z M436.890702,59.3372913 L436.890702,80.0489693 L392.0165,80.0489693 L392.0165,59.3372913 L436.890702,59.3372913 Z M492.475804,59.3372913 L492.475804,80.0489693 L447.567609,80.0489693 L447.567609,59.3372913 L492.475804,59.3372913 Z M375.685701,59.3372913 L375.685701,80.0489693 L330.804501,80.0489693 L330.804501,59.3372913 L375.685701,59.3372913 Z M321.701285,59.3372913 L321.701285,80.0489693 L276.819085,80.0489693 L276.819085,59.3372913 L321.701285,59.3372913 Z M665.738835,59.0200009 L665.738835,79.722699 L564.659602,79.722699 C564.612661,72.4489668 567.487098,68.9108798 573.146988,63.0420056 C576.437343,59.6066888 584.758711,59.0200009 584.758711,59.0200009 L665.738835,59.0200009 Z M527.630525,29.6721829 L528.319171,29.7371197 L528.916684,29.8078046 L529.447454,29.8797858 C532.088345,30.2586935 536.913135,31.2586084 539.233637,33.6806727 L540.239149,34.7331223 L540.874847,35.4098063 L541.48276,36.0694177 C545.640757,40.6327162 547.752052,44.1230325 547.723491,50.3593705 L392.013873,50.3593705 C391.950513,43.0836428 394.847945,39.5455558 400.488839,33.6806727 C403.743078,30.3075851 411.809926,29.6927189 412.091972,29.6721829 L527.630525,29.6721829 Z M375.685701,0 L375.685701,50.3593705 L276.500147,50.3593705 C276.431161,43.0836428 279.324594,39.5455558 284.969487,33.6806727 C288.212921,30.3075851 296.29695,29.6927189 296.579602,29.6721829 L330.804501,29.6716389 L330.804501,0 L375.685701,0 Z M645.671365,29.6721829 L646.35856,29.7371197 L646.954916,29.8078046 L647.484721,29.8797858 L648.059756,29.9673043 C650.773744,30.4033769 655.100177,31.4256473 657.270495,33.6806727 L657.948746,34.3876049 L658.913765,35.4098063 L659.522132,36.0694177 C663.682606,40.6327162 665.78187,44.1230325 665.741885,50.3593705 L564.662651,50.3593705 L564.662651,29.6716389 L645.671365,29.6721829 Z M671.662868,12.038178 C676.819857,12.038178 681.23999,15.9783657 681.23999,21.338378 C681.23999,26.7383009 676.819857,30.6904619 671.662868,30.6904619 C666.436892,30.6904619 662.027757,26.7383009 662.027757,21.338378 C662.027757,15.9783657 666.436892,12.038178 671.662868,12.038178 Z M671.662868,13.5887102 C667.31572,13.5887102 663.918386,16.9072882 663.918386,21.338378 C663.918386,25.8313294 667.31572,29.1409274 671.662868,29.1409274 C675.947028,29.1409274 679.329365,25.8313294 679.329365,21.338378 C679.329365,16.9072882 675.947028,13.5887102 671.662868,13.5887102 Z M672.154771,15.9783657 C674.723268,15.9783657 676.010015,16.9072882 676.010015,19.0405172 C676.010015,20.9692036 674.784256,21.812318 673.177571,21.9979029 L676.287961,26.7383009 L674.425326,26.7383009 L671.553889,22.0737333 L669.652262,22.0737333 L669.652262,26.7383009 L667.986588,26.7383009 L667.986588,15.9783657 L672.154771,15.9783657 Z M669.652262,17.3662617 L669.652262,20.6948173 L671.917477,20.6928047 L672.211405,20.6846418 C673.368635,20.6354399 674.285354,20.3621328 674.285354,18.9467269 C674.285354,17.6654259 673.157776,17.3884481 672.050093,17.3675911 L669.652262,17.3662617 Z" id="dma" fill="#FFFFFF"></path>
  </g>
</svg>
